<!DOCTYPE svg PUBLIC "-//W3C//DTD SVG 1.1//EN" "http://www.w3.org/Graphics/SVG/1.1/DTD/svg11.dtd">
<!-- Uploaded to: SVG Repo, www.svgrepo.com, Transformed by: SVG Repo Mixer Tools -->
<svg width="256px" height="256px" viewBox="-4.8 -4.8 57.60 57.60" version="1" xmlns="http://www.w3.org/2000/svg" enable-background="new 0 0 48 48" fill="#0587A7" stroke="#0587A7" stroke-width="0.00048000000000000007">
<g id="SVGRepo_bgCarrier" stroke-width="0"/>
<g id="SVGRepo_tracerCarrier" stroke-linecap="round" stroke-linejoin="round" stroke="#0587A7" stroke-width="9.6"> <path fill="#0587A7" d="M37,40H11l-6,6V12c0-3.3,2.7-6,6-6h26c3.3,0,6,2.7,6,6v22C43,37.3,40.3,40,37,40z"/> <g fill="#ffffff"> <rect x="22" y="20" width="4" height="11"/> <circle cx="24" cy="15" r="2"/> </g> </g>
<g id="SVGRepo_iconCarrier"> <path fill="#0587A7" d="M37,40H11l-6,6V12c0-3.3,2.7-6,6-6h26c3.3,0,6,2.7,6,6v22C43,37.3,40.3,40,37,40z"/> <g fill="#ffffff"> <rect x="22" y="20" width="4" height="11"/> <circle cx="24" cy="15" r="2"/> </g> </g>
</svg>