<!DOCTYPE svg PUBLIC "-//W3C//DTD SVG 1.1//EN" "http://www.w3.org/Graphics/SVG/1.1/DTD/svg11.dtd">
<!-- Uploaded to: SVG Repo, www.svgrepo.com, Transformed by: SVG Repo Mixer Tools -->
<svg width="256px" height="256px" viewBox="-5.76 -5.76 35.52 35.52" fill="none" xmlns="http://www.w3.org/2000/svg" stroke="#000" transform="rotate(0)matrix(1, 0, 0, 1, 0, 0)">
<g id="SVGRepo_bgCarrier" stroke-width="0" transform="translate(0,0), scale(1)">
<rect x="-5.76" y="-5.76" width="35.52" height="35.52" rx="17.76" fill="#0587A7" strokewidth="0"/>
</g>
<g id="SVGRepo_tracerCarrier" stroke-linecap="round" stroke-linejoin="round" stroke="#CCCCCC" stroke-width="0.43200000000000005"/>
<g id="SVGRepo_iconCarrier"> <path d="M7.2998 5H22L20 12H8.37675M21 16H9L7 3H4M4 8H2M5 11H2M6 14H2M10 20C10 20.5523 9.55228 21 9 21C8.44772 21 8 20.5523 8 20C8 19.4477 8.44772 19 9 19C9.55228 19 10 19.4477 10 20ZM21 20C21 20.5523 20.5523 21 20 21C19.4477 21 19 20.5523 19 20C19 19.4477 19.4477 19 20 19C20.5523 19 21 19.4477 21 20Z" stroke="#fff" stroke-width="2.4" stroke-linecap="round" stroke-linejoin="round"/> </g>
</svg>