<!DOCTYPE svg PUBLIC "-//W3C//DTD SVG 1.1//EN" "http://www.w3.org/Graphics/SVG/1.1/DTD/svg11.dtd">
<!-- Uploaded to: SVG Repo, www.svgrepo.com, Transformed by: SVG Repo Mixer Tools -->
<svg fill="#0587A7" height="800px" width="800px" version="1.1" id="Layer_1" xmlns="http://www.w3.org/2000/svg" xmlns:xlink="http://www.w3.org/1999/xlink" viewBox="0 0 512 512" xml:space="preserve">
<g id="SVGRepo_bgCarrier" stroke-width="0"/>
<g id="SVGRepo_tracerCarrier" stroke-linecap="round" stroke-linejoin="round"/>
<g id="SVGRepo_iconCarrier"> <g> <g> <path d="M302.298,209.702H155.234c-4.512,0-8.17,3.658-8.17,8.17c0,4.512,3.658,8.17,8.17,8.17h147.064 c4.512,0,8.17-3.658,8.17-8.17C310.468,213.36,306.81,209.702,302.298,209.702z"/> </g> </g> <g> <g> <path d="M285.527,253.277H89.872c-4.512,0-8.17,3.658-8.17,8.17v43.574c0,4.512,3.658,8.17,8.17,8.17h171.183 c4.512,0,8.17-3.658,8.17-8.17c0-4.512-3.658-8.17-8.17-8.17H98.043v-27.234h187.485c4.512,0,8.17-3.658,8.17-8.17 C293.697,256.935,290.039,253.277,285.527,253.277z"/> </g> </g> <g> <g> <circle cx="375.83" cy="84.426" r="8.17"/> </g> </g> <g> <g> <circle cx="343.149" cy="84.426" r="8.17"/> </g> </g> <g> <g> <circle cx="408.511" cy="84.426" r="8.17"/> </g> </g> <g> <g> <path d="M449.362,43.574H8.17c-3.095,0-5.924,1.748-7.307,4.517C0,49.815,0,49.815,0,55.721v350.066c0,4.512,3.658,8.17,8.17,8.17 h256.005c4.512,0,8.17-3.658,8.17-8.17s-3.658-8.17-8.17-8.17H16.34c0-35.947,0-181.912,0-272.34h424.851v95.326 c0,4.512,3.658,8.17,8.17,8.17s8.17-3.658,8.17-8.17V51.745C457.532,47.233,453.874,43.574,449.362,43.574z M294.128,108.936 H16.34c0-22.068,0-39.457,0-49.021h277.787V108.936z M441.191,108.936H310.468V59.915h130.723V108.936z"/> </g> </g> <g> <g> <path d="M394.894,234.213c-64.573,0-117.106,52.533-117.106,117.106s52.533,117.106,117.106,117.106S512,415.892,512,351.319 S459.466,234.213,394.894,234.213z M394.894,452.085c-55.563,0-100.766-45.203-100.766-100.766s45.203-100.766,100.766-100.766 c55.563,0,100.766,45.203,100.766,100.766S450.455,452.085,394.894,452.085z"/> </g> </g> <g> <g> <path d="M450.74,372.502l-21.184-21.183l21.183-21.183c9.558-9.558,9.558-25.107,0.001-34.664 c-4.63-4.63-10.785-7.179-17.332-7.179s-12.702,2.549-17.332,7.179l-21.183,21.183l-21.184-21.183 c-4.63-4.63-10.785-7.179-17.332-7.179s-12.703,2.55-17.332,7.179c-9.557,9.557-9.557,25.107,0,34.664l21.184,21.183 l-21.183,21.183c-9.557,9.557-9.557,25.107,0,34.664c4.63,4.63,10.785,7.179,17.332,7.179c6.547,0,12.702-2.549,17.332-7.179 l21.183-21.183l21.183,21.183c4.63,4.63,10.785,7.179,17.332,7.179s12.703-2.549,17.332-7.179 C460.297,397.608,460.297,382.059,450.74,372.502z M439.185,395.611c-1.544,1.544-3.595,2.393-5.778,2.393 c-2.182,0-4.234-0.85-5.777-2.393l-26.961-26.961c-1.595-1.596-3.686-2.393-5.777-2.393s-4.182,0.797-5.777,2.393l-26.961,26.961 c-1.544,1.544-3.595,2.393-5.777,2.393c-2.182,0-4.234-0.85-5.777-2.393c-3.185-3.185-3.185-8.37,0-11.555l26.961-26.961 c3.191-3.191,3.191-8.364,0-11.554l-26.961-26.961c-3.185-3.185-3.185-8.37,0-11.555c1.542-1.544,3.594-2.393,5.777-2.393 c2.182,0,4.234,0.85,5.777,2.393l26.961,26.961c3.191,3.191,8.364,3.191,11.554,0l26.961-26.961 c1.544-1.544,3.595-2.393,5.777-2.393s4.234,0.85,5.778,2.393c3.186,3.185,3.186,8.37,0,11.555l-26.961,26.961 c-1.533,1.532-2.393,3.61-2.393,5.777s0.861,4.245,2.393,5.777l26.961,26.961C442.37,387.242,442.37,392.426,439.185,395.611z"/> </g> </g> </g>
</svg>