<!DOCTYPE svg PUBLIC "-//W3C//DTD SVG 1.1//EN" "http://www.w3.org/Graphics/SVG/1.1/DTD/svg11.dtd">
<!-- Uploaded to: SVG Repo, www.svgrepo.com, Transformed by: SVG Repo Mixer Tools -->
<svg fill="#0587A7" version="1.1" id="Capa_1" xmlns="http://www.w3.org/2000/svg" xmlns:xlink="http://www.w3.org/1999/xlink" width="800px" height="800px" viewBox="0 0 450.965 450.965" xml:space="preserve">
<g id="SVGRepo_bgCarrier" stroke-width="0"/>
<g id="SVGRepo_tracerCarrier" stroke-linecap="round" stroke-linejoin="round"/>
<g id="SVGRepo_iconCarrier"> <g> <g> <path d="M280.288,389.318c18.316,0,33.215-14.889,33.215-33.2V93.409c0-18.311-14.898-33.212-33.215-33.212H170.677 c-18.304,0-33.203,14.901-33.203,33.205v262.716c0,18.302,14.889,33.2,33.203,33.2H280.288z M143.398,356.124V93.402 c0-15.041,12.238-27.279,27.279-27.279h109.621c15.041,0,27.289,12.238,27.289,27.286v262.715 c0,15.04-12.238,27.278-27.289,27.278H170.677C155.636,383.397,143.398,371.159,143.398,356.124z"/> <path d="M282.796,450.965c31.702,0,57.493-25.796,57.493-57.498V57.503C340.289,25.801,314.498,0,282.796,0H168.174 c-31.705,0-57.498,25.794-57.498,57.495v335.962c0,31.707,25.793,57.498,57.498,57.498h114.622V450.965z M122.518,393.457V57.495 c0-25.169,20.477-45.646,45.648-45.646h114.62c25.172,0,45.646,20.484,45.646,45.653v335.954 c0,25.172-20.475,45.646-45.646,45.646H168.174C143.002,439.113,122.518,418.629,122.518,393.457z"/> <path d="M297.822,337.812V100.369c0-1.636-1.331-2.963-2.966-2.963H156.101c-1.635,0-2.96,1.328-2.96,2.963v237.443 c0,1.635,1.325,2.961,2.96,2.961h138.756C296.491,340.773,297.822,339.447,297.822,337.812z M283.995,334.852h-117.03 c-4.362,0-7.901-3.544-7.901-7.9V111.233c0-4.362,3.539-7.901,7.901-7.901h117.03c4.361,0,7.901,3.539,7.901,7.901v215.718 C291.896,331.317,288.356,334.852,283.995,334.852z"/> <path d="M237.77,39.278c-4.184,0-7.591,2.166-7.591,4.834c0,2.671,3.539,4.837,7.901,4.837h13.878 c4.361,0,6.748-3.659,3.107-6.061c-0.711-0.467-1.452-0.884-2.199-1.239C248.952,39.738,241.964,39.278,237.77,39.278z"/> <path d="M215.833,39.278c-3.158,0-5.979,0-8.082,0c-4.542,0-8.343,1.919-11.162,4.044c-3.486,2.63-1.96,5.626,2.41,5.626h16.833 c4.362,0,7.901-2.166,7.901-4.837C223.734,41.444,220.195,39.278,215.833,39.278z"/> </g> </g> </g>
</svg>